<svg data-name="Ebene 1" xmlns="http://www.w3.org/2000/svg" viewBox="0 0 57.66 75.32"><path fill="#2a2a2a" d="M-.002 18.404l30.742-4.836L35.307 42.6 4.565 47.437z"/><path d="M26.2 37.24a14.52 14.52 0 01-5.61 2c-5.49.88-9.26-2.28-10.15-7.83s1.48-10.24 6.64-11.07 7.86 3.11 8.58 7.61a11.89 11.89 0 01.16 1.63l-11.57 1.86c.75 4.08 3.55 5.23 6.43 4.77a11.56 11.56 0 004.45-1.6zm-4.36-9.86c-.32-2.19-1.65-4.76-4.59-4.29s-3.55 3.42-3.41 5.57z" fill="#fff"/><path d="M29.05 21.51C29.05 6.92 38.18 0 48.98 0a30.44 30.44 0 018.68 1.11l-1 12.46a17 17 0 00-4.7-.65c-6.74 0-6.74 6.56-6.74 10.43h9.62v11.72h-9.51v40.25H29.05V21.51z" fill="#991636"/></svg>
